<?xml version="1.0" standalone="no"?>
<!DOCTYPE svg PUBLIC "-//W3C//DTD SVG 20010904//EN"
 "http://www.w3.org/TR/2001/REC-SVG-20010904/DTD/svg10.dtd">
<svg version="1.0" xmlns="http://www.w3.org/2000/svg"
 width="248.000000pt" height="173.000000pt" viewBox="0 0 248.000000 173.000000"
 preserveAspectRatio="xMidYMid meet">

<g transform="translate(0.000000,173.000000) scale(0.100000,-0.100000)"
fill="#000000" stroke="none">
<path d="M1671 1361 c-16 -28 -14 -31 15 -31 20 0 25 4 22 22 -4 29 -24 34
-37 9z"/>
<path d="M1631 1278 c-10 -24 -17 -44 -16 -46 1 -1 26 -6 54 -11 l51 -8 0 47
c0 41 -3 49 -22 54 -41 11 -49 6 -67 -36z"/>
<path d="M1606 1173 c-6 -35 -46 -379 -46 -395 0 -5 22 -8 48 -8 l48 0 32 212
c17 117 30 213 29 214 -1 1 -25 5 -53 9 l-52 7 -6 -39z"/>
<path d="M1509 890 c-26 -22 -52 -54 -58 -71 -10 -30 -10 -31 12 -25 12 3 36
6 54 6 31 0 32 1 38 54 4 30 6 59 4 65 -2 6 -25 -7 -50 -29z"/>
<path d="M1686 884 c-4 -22 -9 -51 -12 -66 -5 -24 0 -29 42 -47 56 -25 53 -25
49 -3 -2 9 -4 24 -4 32 -1 8 -16 39 -35 69 l-33 53 -7 -38z"/>
<path d="M1580 750 c0 -5 5 -10 10 -10 6 0 10 -8 10 -17 0 -15 2 -14 15 3 20
27 19 34 -10 34 -14 0 -25 -4 -25 -10z"/>
<path d="M1572 710 c0 -14 2 -19 5 -12 2 6 2 18 0 25 -3 6 -5 1 -5 -13z"/>
<path d="M1621 704 c0 -11 3 -14 6 -6 3 7 2 16 -1 19 -3 4 -6 -2 -5 -13z"/>
<path d="M1592 670 c0 -14 2 -19 5 -12 2 6 2 18 0 25 -3 6 -5 1 -5 -13z"/>
</g>
</svg>
